<svg width="61" height="61" fill="none" xmlns="http://www.w3.org/2000/svg"><g clip-path="url(#clip0)"><path d="M41.827 4.463C52.371 9.666 60.02 9.662 56.28 30.873c-3.74 21.213-10.601 41.795-29.454 20.193S5.043 33.516 6.21 17.476C7.375 1.435 28.547-2.09 41.827 4.463z" fill="#3179E8" fill-opacity=".1"/><path d="M14 41V15a5 5 0 0 1 5-5h22a5 5 0 0 1 5 5v35l-4-2-4 2-4-2-4 2-4-2-4 2-4-2-4 2" stroke="#3179E8" stroke-width="4" stroke-linecap="round" stroke-linejoin="round"/><path d="M22 34h8m-8-7h16m-10-7h10" stroke="#679CEF" stroke-width="4" stroke-linecap="round" stroke-linejoin="round"/><path d="M22 22a2 2 0 1 0 0-4 2 2 0 0 0 0 4z" fill="#3179E8"/></g><defs><clipPath id="clip0"><path fill="#fff" d="M0 0H61V61H0z"/></clipPath></defs></svg>