<svg width="61" height="61" fill="none" xmlns="http://www.w3.org/2000/svg"><path d="M57.23 36.91c-3.293 11.288-1.96 18.82-23.5 18.82-21.539 0-43-3.182-25-25.5 18-22.317 13.5-24.5 29.5-26.137 16-1.637 23.147 18.601 19 32.818z" fill="#3179E8" fill-opacity=".1"/><path d="M30 39v8m8 0H22" stroke="#679CEF" stroke-width="4" stroke-linecap="round" stroke-linejoin="round"/><path d="M10 31V18a5 5 0 0 1 5-5h30a5 5 0 0 1 5 5v16a5 5 0 0 1-5 5H14" stroke="#3179E8" stroke-width="4" stroke-linecap="round" stroke-linejoin="round"/><path d="M30 33a2 2 0 1 0 0-4 2 2 0 0 0 0 4z" fill="#3179E8"/></svg>