<svg width="61" height="61" viewBox="0 0 61 61" fill="none" xmlns="http://www.w3.org/2000/svg">
<path d="M57.2297 36.9109C53.9374 48.1978 55.2693 55.7303 33.7302 55.7303C12.1911 55.7303 -9.27009 52.5479 8.73011 30.2303C26.7303 7.9128 22.2302 5.73033 38.2299 4.09339C54.2295 2.45644 61.3766 22.6944 57.2297 36.9109Z" fill="#3179E8" fill-opacity="0.1"/>
<path d="M30 39V47" stroke="#679CEF" stroke-width="4" stroke-linecap="round" stroke-linejoin="round"/>
<path d="M38 47H22" stroke="#679CEF" stroke-width="4" stroke-linecap="round" stroke-linejoin="round"/>
<path d="M10 31V18C10 15.2386 12.2386 13 15 13L45 13C47.7614 13 50 15.2386 50 18V34C50 36.7614 47.7614 39 45 39H14" stroke="#3179E8" stroke-width="4" stroke-linecap="round" stroke-linejoin="round"/>
<path d="M30 33C31.1046 33 32 32.1046 32 31C32 29.8954 31.1046 29 30 29C28.8954 29 28 29.8954 28 31C28 32.1046 28.8954 33 30 33Z" fill="#3179E8"/>
</svg>
