<svg width="61" height="61" fill="none" xmlns="http://www.w3.org/2000/svg"><g clip-path="url(#clip0)"><path d="M7.198 13.997c6.954-9.48 8.279-17.014 28.519-9.647 20.24 7.367 39.318 17.698 14.77 32.513-24.547 14.815-21.065 18.405-36.66 14.471C-1.766 47.4-1.56 25.938 7.198 13.997z" fill="#3179E8" fill-opacity=".1"/><path d="M18 33l22-22 8 8-28 27.999L12 47v-8" stroke="#3179E8" stroke-width="4" stroke-linecap="round" stroke-linejoin="round"/><path d="M48 46.999H32" stroke="#679CEF" stroke-width="4" stroke-linecap="round" stroke-linejoin="round"/><path d="M39 22a2 2 0 1 0 0-4 2 2 0 0 0 0 4z" fill="#3179E8"/></g><defs><clipPath id="clip0"><path fill="#fff" d="M0 0H61V61H0z"/></clipPath></defs></svg>