<svg width="61" height="61" fill="none" xmlns="http://www.w3.org/2000/svg"><g clip-path="url(#clip0)"><path d="M58.009 27.24c.767 11.731 4.594 18.354-15.646 25.72C22.123 60.329.868 64.678 10.15 37.55 19.431 10.42 14.456 9.91 28.931 2.9c14.475-7.011 28.113 9.562 29.078 24.34z" fill="#3179E8" fill-opacity=".1"/><path d="M10 36V19a5 5 0 0 1 5-5h30a5 5 0 0 1 5 5v20a5 5 0 0 1-5 5H14" stroke="#3179E8" stroke-width="4" stroke-linecap="round" stroke-linejoin="round"/><path d="M43 26l-13 8-13-8" stroke="#679CEF" stroke-width="4" stroke-linecap="round" stroke-linejoin="round"/><path d="M30 24a2 2 0 1 0 0-4 2 2 0 0 0 0 4z" fill="#3179E8"/></g><defs><clipPath id="clip0"><path fill="#fff" d="M0 0H61V61H0z"/></clipPath></defs></svg>