<svg width="61" height="61" fill="none" xmlns="http://www.w3.org/2000/svg"><g clip-path="url(#clip0)"><path d="M57.13 22.449c2.793 11.42 7.712 17.278-10.941 28.048s-38.83 18.744-34.4-9.584-.56-27.968 12.478-37.385c13.038-9.418 29.347 4.536 32.864 18.92z" fill="#3179E8" fill-opacity=".1"/><path d="M40 30a2 2 0 1 0 0-4 2 2 0 0 0 0 4z" fill="#3179E8"/><path d="M46 28v16a5 5 0 0 1-5 5H18m-4-21v13m36-19L30 9 10 22" stroke="#3179E8" stroke-width="4" stroke-linecap="round" stroke-linejoin="round"/><path d="M25 41v-3a5 5 0 0 1 10 0v3" stroke="#679CEF" stroke-width="4" stroke-linecap="round" stroke-linejoin="round"/></g><defs><clipPath id="clip0"><path fill="#fff" d="M0 0H61V61H0z"/></clipPath></defs></svg>