<svg width="61" height="61" fill="none" xmlns="http://www.w3.org/2000/svg"><path d="M37.24 2.83C48.525 6.12 56.058 4.79 56.058 26.328c0 21.539-3.183 43-25.5 25-22.318-18-24.5-13.5-26.137-29.5-1.637-16 18.6-23.147 32.817-19z" fill="#3179E8" fill-opacity=".1"/><path d="M12 40V17a5 5 0 0 1 5-5h26a5 5 0 0 1 5 5v26a5 5 0 0 1-5 5H16" stroke="#3179E8" stroke-width="4" stroke-linecap="round" stroke-linejoin="round"/><path d="M40 22a2 2 0 1 0 0-4 2 2 0 0 0 0 4z" fill="#3179E8"/><circle cx="30" cy="30" r="7.25" stroke="#679CEF" stroke-width="3.5"/></svg>