<svg width="61" height="61" fill="none" xmlns="http://www.w3.org/2000/svg"><g clip-path="url(#clip0)"><path d="M52.97 13.683c6.53 9.777 13.156 13.599-.69 30.099-13.844 16.5-30.077 30.894-35.603 2.76-5.526-28.135-10.09-26.09-1.06-39.399 9.03-13.308 29.127-5.775 37.352 6.54z" fill="#3179E8" fill-opacity=".1"/><path d="M12 40V17a5 5 0 0 1 5-5h26a5 5 0 0 1 5 5v26a5 5 0 0 1-5 5H16" stroke="#3179E8" stroke-width="4" stroke-linecap="round" stroke-linejoin="round"/><path d="M40 22a2 2 0 1 0 0-4 2 2 0 0 0 0 4z" fill="#3179E8"/><path d="M41 36l-5-4-5 4-6-8-6 8" stroke="#679CEF" stroke-width="4" stroke-linecap="round" stroke-linejoin="round"/></g><defs><clipPath id="clip0"><path fill="#fff" d="M0 0H61V61H0z"/></clipPath></defs></svg>