<svg width="61" height="61" fill="none" xmlns="http://www.w3.org/2000/svg"><g clip-path="url(#clip0)"><path d="M13 40V17a5 5 0 0 1 5-5h26a5 5 0 0 1 5 5v26a5 5 0 0 1-5 5H17" stroke="#3179E8" stroke-width="4" stroke-linecap="round" stroke-linejoin="round"/><path clip-rule="evenodd" d="M24 21.862c0-.795.532-1.093 1.184-.668l12.326 8.034c.654.426.652 1.118 0 1.543l-12.326 8.035c-.654.426-1.184.128-1.184-.668V21.862z" stroke="#679CEF" stroke-width="4" stroke-linecap="round" stroke-linejoin="round"/><path d="M41 22a2 2 0 1 0 0-4 2 2 0 0 0 0 4z" fill="#3179E8"/><path d="M57.13 22.449c2.793 11.42 7.712 17.278-10.941 28.048-18.654 10.77-38.83 18.744-34.4-9.584 4.43-28.327-.56-27.967 12.478-37.385 13.038-9.417 29.346 4.536 32.863 18.92z" fill="#3179E8" fill-opacity=".1"/></g><defs><clipPath id="clip0"><path fill="#fff" d="M0 0H61V61H0z"/></clipPath></defs></svg>