<svg width="61" height="61" fill="none" xmlns="http://www.w3.org/2000/svg"><g clip-path="url(#clip0)"><path d="M2.378 32.491C1.612 20.76-2.216 14.136 18.024 6.77 38.264-.597 59.519-4.947 50.238 22.181c-9.282 27.128-4.307 27.64-18.781 34.65-14.475 7.01-28.113-9.562-29.079-24.34z" fill="#3179E8" fill-opacity=".1"/><path d="M27 42v-3a5 5 0 0 1 10 0v3" stroke="#679CEF" stroke-width="4" stroke-linecap="round" stroke-linejoin="round"/><path d="M49 25v20a5 5 0 0 1-5 5H19" stroke="#3179E8" stroke-width="4" stroke-linecap="round" stroke-linejoin="round"/><path d="M15 25v17" stroke="#679CEF" stroke-width="4" stroke-linecap="round" stroke-linejoin="round"/><path fill-rule="evenodd" clip-rule="evenodd" d="M43 36a2 2 0 1 0 0-4 2 2 0 0 0 0 4z" fill="#3179E8"/><path clip-rule="evenodd" d="M17.426 10.595A1.92 1.92 0 0 1 18.828 10h26.344c.53 0 1.038.21 1.402.595C48.074 12.185 52 16.573 52 19a7 7 0 0 1-13.5 2.603 7.002 7.002 0 0 1-13 0A7.002 7.002 0 0 1 12 19c0-2.427 3.925-6.816 5.426-8.405z" stroke="#3179E8" stroke-width="4" stroke-linecap="round" stroke-linejoin="round"/></g><defs><clipPath id="clip0"><path fill="#fff" d="M0 0H61V61H0z"/></clipPath></defs></svg>