<svg width="138" height="74" viewBox="0 0 138 74" fill="none" xmlns="http://www.w3.org/2000/svg">
<path d="M18.0702 16.2409L15.1202 17.9109C15.06 17.9462 15.0102 17.9966 14.9755 18.0571C14.9408 18.1176 14.9226 18.1862 14.9226 18.2559C14.9226 18.3256 14.9408 18.3942 14.9755 18.4547C15.0102 18.5152 15.06 18.5656 15.1202 18.6009L28.4602 25.9309L31.6402 27.6809C31.7594 27.7474 31.8937 27.7824 32.0302 27.7824C32.1667 27.7824 32.301 27.7474 32.4202 27.6809L32.6702 27.5309L39.4302 23.6209V4.16089L39.3302 4.22089L18.0702 16.2409Z" fill="#FFCB31"/>
<path d="M56.1602 33.2707L50.7602 36.3607L40.6102 42.1607C40.4876 42.229 40.3857 42.3292 40.3153 42.4507C40.2449 42.5721 40.2086 42.7103 40.2102 42.8507V50.0007L56.7602 59.2507V33.6107C56.7591 33.541 56.7398 33.4728 56.7042 33.4129C56.6687 33.353 56.6181 33.3034 56.5574 33.269C56.4968 33.2347 56.4283 33.2168 56.3586 33.217C56.2889 33.2173 56.2205 33.2358 56.1602 33.2707Z" fill="#30CEF2"/>
<path d="M23.2002 44.2807L14.8602 45.4107L7.00016 35.2307C6.94813 35.1669 6.87768 35.1207 6.79842 35.0984C6.71917 35.0761 6.63496 35.0789 6.5573 35.1062C6.47964 35.1335 6.41231 35.1842 6.3645 35.2512C6.31669 35.3183 6.29073 35.3984 6.29016 35.4807V58.9607L23.6302 50.7707V44.6807C23.6303 44.6256 23.6191 44.571 23.5971 44.5204C23.5752 44.4698 23.543 44.4243 23.5026 44.3867C23.4622 44.3492 23.4145 44.3204 23.3625 44.3021C23.3104 44.2839 23.2552 44.2766 23.2002 44.2807Z" fill="#ED2F47"/>
<path d="M63.2502 20.7009L33.7102 37.9109C33.534 38.0135 33.3867 38.159 33.2818 38.3338C33.1769 38.5086 33.1178 38.7071 33.1102 38.9109V72.9109C33.1096 72.9814 33.1276 73.0508 33.1624 73.1121C33.1973 73.1735 33.2477 73.2245 33.3086 73.26C33.3695 73.2955 33.4388 73.3143 33.5093 73.3145C33.5798 73.3146 33.6491 73.2961 33.7102 73.2609L39.6102 69.7909C39.7876 69.6897 39.936 69.5446 40.0411 69.3694C40.1462 69.1943 40.2044 68.995 40.2102 68.7909V42.8509C40.2086 42.7105 40.2449 42.5723 40.3153 42.4509C40.3857 42.3295 40.4876 42.2293 40.6102 42.1609L50.7602 36.3609L56.1602 33.2709C56.2205 33.236 56.2889 33.2176 56.3586 33.2173C56.4283 33.217 56.4968 33.2349 56.5574 33.2693C56.6181 33.3036 56.6687 33.3532 56.7042 33.4131C56.7398 33.473 56.7591 33.5412 56.7602 33.6109V59.0709C56.7613 59.1406 56.7806 59.2087 56.8161 59.2686C56.8517 59.3286 56.9023 59.3782 56.9629 59.4125C57.0236 59.4469 57.0921 59.4648 57.1618 59.4645C57.2314 59.4642 57.2998 59.4457 57.3602 59.4109L63.2702 55.9109C63.4426 55.8058 63.586 55.6593 63.6873 55.4846C63.7886 55.31 63.8446 55.1127 63.8502 54.9109V21.0409C63.8523 20.97 63.835 20.8998 63.8002 20.838C63.7654 20.7762 63.7143 20.7251 63.6526 20.6901C63.5909 20.6551 63.5208 20.6376 63.4499 20.6395C63.379 20.6414 63.3099 20.6627 63.2502 20.7009Z" fill="#333333"/>
<path d="M62.5702 17.6408L56.7302 14.2808C56.5488 14.1724 56.3415 14.1152 56.1302 14.1152C55.9189 14.1152 55.7116 14.1724 55.5302 14.2808L32.6702 27.5208L32.4202 27.6708C32.301 27.7373 32.1667 27.7723 32.0302 27.7723C31.8937 27.7723 31.7594 27.7373 31.6402 27.6708L28.4602 25.9208L15.1202 18.6008C15.06 18.5655 15.0102 18.5151 14.9755 18.4546C14.9408 18.394 14.9226 18.3255 14.9226 18.2558C14.9226 18.186 14.9408 18.1175 14.9755 18.057C15.0102 17.9965 15.06 17.9461 15.1202 17.9108L18.0702 16.2408L39.2702 4.24077C39.3303 4.20548 39.3802 4.15507 39.4149 4.09455C39.4495 4.03404 39.4678 3.96551 39.4678 3.89577C39.4678 3.82603 39.4495 3.75751 39.4149 3.69699C39.3802 3.63647 39.3303 3.58606 39.2702 3.55077L33.4502 0.16077C33.2678 0.0554484 33.0608 0 32.8502 0C32.6395 0 32.4326 0.0554484 32.2502 0.16077L1.56019 17.9908C1.50004 18.0261 1.45016 18.0765 1.4155 18.137C1.38084 18.1975 1.36261 18.266 1.36261 18.3358C1.36261 18.4055 1.38084 18.474 1.4155 18.5346C1.45016 18.5951 1.50004 18.6455 1.56019 18.6808L31.3002 35.8508C31.4851 35.9541 31.6934 36.0084 31.9052 36.0084C32.117 36.0084 32.3253 35.9541 32.5102 35.8508L62.5702 18.3608C62.6378 18.328 62.6949 18.2769 62.7348 18.2132C62.7747 18.1495 62.7958 18.0759 62.7958 18.0008C62.7958 17.9256 62.7747 17.852 62.7348 17.7883C62.6949 17.7247 62.6378 17.6735 62.5702 17.6408Z" fill="#333333"/>
<path d="M30.1502 37.8607L25.4802 35.1607C25.3988 35.1354 25.3116 35.1354 25.2302 35.1607L15.2302 36.5107L5.32017 23.5607L5.20017 23.4607L0.600169 20.8007C0.540412 20.7625 0.47136 20.7413 0.400446 20.7394C0.329532 20.7375 0.259444 20.755 0.197725 20.79C0.136007 20.8249 0.0849961 20.8761 0.0501853 20.9379C0.0153744 20.9997 -0.00191826 21.0698 0.000168875 21.1407V55.1407C0.00783316 55.3445 0.0668527 55.543 0.171747 55.7178C0.276642 55.8926 0.42401 56.0381 0.600169 56.1407L5.71017 59.1407C5.77124 59.176 5.84055 59.1945 5.91107 59.1943C5.98159 59.1942 6.05082 59.1754 6.11173 59.1398C6.17265 59.1043 6.22309 59.0533 6.25793 58.992C6.29278 58.9307 6.3108 58.8613 6.31017 58.7907V35.4807C6.31074 35.3984 6.3367 35.3183 6.38451 35.2512C6.43232 35.1842 6.49965 35.1336 6.57731 35.1062C6.65497 35.0789 6.73917 35.0761 6.81843 35.0984C6.89769 35.1207 6.96814 35.1669 7.02017 35.2307L14.8602 45.4107L23.2002 44.2807C23.2567 44.2736 23.3142 44.2786 23.3686 44.2955C23.4231 44.3124 23.4733 44.3407 23.5159 44.3786C23.5585 44.4165 23.5926 44.4631 23.6157 44.5152C23.6389 44.5673 23.6506 44.6237 23.6502 44.6807V68.8707C23.656 69.0749 23.7142 69.2741 23.8193 69.4493C23.9244 69.6244 24.0728 69.7696 24.2502 69.8707L30.1502 73.2807C30.2112 73.316 30.2806 73.3345 30.3511 73.3343C30.4216 73.3342 30.4908 73.3154 30.5517 73.2798C30.6126 73.2443 30.6631 73.1933 30.6979 73.132C30.7328 73.0707 30.7508 73.0013 30.7502 72.9307V38.8907C30.7496 38.6814 30.6938 38.476 30.5884 38.2952C30.4831 38.1143 30.3319 37.9645 30.1502 37.8607Z" fill="#333333"/>
<path d="M131.18 36.1408C132.114 36.1947 133.04 35.9457 133.82 35.4308C134.123 35.2083 134.378 34.9272 134.571 34.6043C134.763 34.2814 134.889 33.9231 134.94 33.5508H132.94C132.802 33.7799 132.601 33.964 132.36 34.0808C132.003 34.2322 131.618 34.3071 131.23 34.3008C130.871 34.3128 130.513 34.248 130.18 34.1108C129.904 33.9991 129.669 33.8032 129.51 33.5508H127.51C127.58 34.0492 127.784 34.5192 128.1 34.9108C128.427 35.3167 128.855 35.6304 129.34 35.8208C129.928 36.0421 130.552 36.1506 131.18 36.1408Z" fill="#333333"/>
<path d="M118.06 53.6509C118.06 53.8487 118.119 54.042 118.229 54.2065C118.339 54.3709 118.495 54.4991 118.677 54.5748C118.86 54.6504 119.061 54.6702 119.255 54.6317C119.449 54.5931 119.627 54.4978 119.767 54.358C119.907 54.2181 120.002 54.04 120.041 53.846C120.08 53.652 120.06 53.4509 119.984 53.2682C119.908 53.0855 119.78 52.9293 119.616 52.8194C119.451 52.7095 119.258 52.6509 119.06 52.6509C118.795 52.6509 118.541 52.7562 118.353 52.9438C118.166 53.1313 118.06 53.3857 118.06 53.6509Z" fill="#333333"/>
<path d="M121.23 53.6509C121.23 53.8487 121.289 54.042 121.399 54.2065C121.509 54.3709 121.665 54.4991 121.847 54.5748C122.03 54.6504 122.231 54.6702 122.425 54.6317C122.619 54.5931 122.797 54.4978 122.937 54.358C123.077 54.2181 123.172 54.04 123.211 53.846C123.25 53.652 123.23 53.4509 123.154 53.2682C123.078 53.0855 122.95 52.9293 122.786 52.8194C122.621 52.7095 122.428 52.6509 122.23 52.6509C121.965 52.6509 121.711 52.7562 121.523 52.9438C121.336 53.1313 121.23 53.3857 121.23 53.6509Z" fill="#333333"/>
<path d="M80.4002 20.3508H80.4502L84.0102 28.5908H87.0702L90.6502 20.3508H90.7102L93.3302 31.3508H97.7702L92.8602 12.0608H89.6302L85.5802 21.9008H85.5302L81.4702 12.0608H78.2502L73.3102 31.3508H77.7802L80.4002 20.3508Z" fill="#333333"/>
<path d="M108.51 31.7709C114.25 31.7709 118.68 27.7709 118.68 21.7009C118.68 15.6309 114.25 11.6409 108.51 11.6409C102.77 11.6409 98.3402 15.6409 98.3402 21.7009C98.2963 23.0437 98.5301 24.3811 99.027 25.6293C99.5239 26.8776 100.273 28.0098 101.228 28.9551C102.182 29.9004 103.322 30.6384 104.575 31.1229C105.828 31.6074 107.168 31.828 108.51 31.7709ZM108.51 16.0509C109.252 16.0242 109.991 16.1533 110.68 16.4299C111.369 16.7066 111.992 17.1246 112.51 17.657C113.027 18.1894 113.427 18.8244 113.684 19.5209C113.94 20.2174 114.048 20.9601 114 21.7009C114 23.149 113.425 24.5377 112.401 25.5617C111.377 26.5856 109.988 27.1609 108.54 27.1609C107.092 27.1609 105.703 26.5856 104.679 25.5617C103.655 24.5377 103.08 23.149 103.08 21.7009C103.033 20.9653 103.139 20.2278 103.392 19.5356C103.645 18.8433 104.04 18.2113 104.551 17.6798C105.061 17.1483 105.677 16.729 106.359 16.4486C107.041 16.1681 107.773 16.0327 108.51 16.0509Z" fill="#333333"/>
<path d="M130.43 27.3608C127.06 27.3608 124.55 25.2108 124.55 21.7108C124.55 18.2108 127.06 16.0608 130.43 16.0608C132.08 16.0769 133.685 16.5968 135.03 17.5508L137.35 13.8008C135.328 12.3724 132.906 11.6199 130.43 11.6508C124.33 11.6508 119.84 15.5708 119.84 21.7108C119.84 27.8508 124.33 31.7808 130.43 31.7808C132.906 31.8118 135.328 31.0592 137.35 29.6308L135 25.8708C133.661 26.8151 132.069 27.3343 130.43 27.3608Z" fill="#333333"/>
<path d="M81.2302 51.5407C83.0192 51.5684 84.7705 51.0255 86.2302 49.9907L84.5602 47.3007C83.5841 47.985 82.4222 48.3549 81.2302 48.3607C80.1534 48.3607 79.1207 47.9329 78.3593 47.1715C77.5979 46.4101 77.1702 45.3775 77.1702 44.3007C77.1702 43.2239 77.5979 42.1912 78.3593 41.4298C79.1207 40.6684 80.1534 40.2407 81.2302 40.2407C82.4193 40.265 83.5719 40.6561 84.5302 41.3607L86.2001 38.6607C84.7396 37.6288 82.9882 37.0894 81.2001 37.1207C76.8201 37.1207 73.5901 39.9307 73.5901 44.3507C73.5901 48.7707 76.8502 51.5407 81.2302 51.5407Z" fill="#333333"/>
<path d="M93.2502 51.2409V40.2509H96.8902V37.3809H86.5102V40.2509H90.1802V51.2409H93.2502Z" fill="#333333"/>
<path d="M101.26 46.4909H103.15C106.65 46.4909 108.26 44.4909 108.26 41.8109C108.26 39.3209 106.65 37.3809 103.15 37.3809H98.1501V51.2409H101.21L101.26 46.4909ZM101.26 40.1709H102.89C104.16 40.1709 104.99 40.6609 104.99 41.8709C104.99 43.0809 104.16 43.7109 102.89 43.7109H101.26V40.1709Z" fill="#333333"/>
<path d="M116.1 37.0807C114.675 37.0945 113.286 37.529 112.108 38.3296C110.929 39.1302 110.013 40.2612 109.475 41.5806C108.937 42.8999 108.801 44.3488 109.084 45.7453C109.367 47.1418 110.056 48.4236 111.065 49.4297C112.074 50.4358 113.358 51.1214 114.755 51.4004C116.152 51.6794 117.601 51.5393 118.918 50.9977C120.236 50.4561 121.365 49.5372 122.162 48.3564C122.96 47.1755 123.39 45.7855 123.4 44.3607C123.44 43.3923 123.278 42.4263 122.925 41.5237C122.572 40.6212 122.035 39.8018 121.349 39.1174C120.663 38.4331 119.842 37.8987 118.938 37.5481C118.035 37.1975 117.068 37.0383 116.1 37.0807ZM116.1 48.3707C115.289 48.4026 114.487 48.1906 113.797 47.7621C113.108 47.3336 112.563 46.7083 112.232 45.9668C111.902 45.2254 111.801 44.4018 111.943 43.6026C112.085 42.8034 112.464 42.0651 113.03 41.4831C113.596 40.9012 114.323 40.5023 115.118 40.3379C115.913 40.1735 116.739 40.2512 117.49 40.561C118.24 40.8708 118.88 41.3984 119.328 42.0757C119.775 42.753 120.01 43.5489 120 44.3607C120.026 44.8844 119.944 45.408 119.759 45.8985C119.574 46.3891 119.289 46.8361 118.923 47.2116C118.557 47.5871 118.117 47.8829 117.631 48.0807C117.146 48.2784 116.624 48.3737 116.1 48.3607V48.3707Z" fill="#333333"/>
<path d="M128.12 46.1309H128.1V37.3809H125.03V51.2409H127.64L134.26 42.5109H134.28V51.2409H137.34V37.3809H134.75L128.12 46.1309Z" fill="#333333"/>
<path d="M74.2101 66.2907H76.4801V58.1507H80.7301V66.2907H83.0101V56.0208H74.2101V66.2907Z" fill="#333333"/>
<path d="M89.6202 55.8007C88.5609 55.8047 87.5266 56.1224 86.6478 56.7137C85.769 57.3051 85.0851 58.1436 84.6824 59.1233C84.2798 60.1031 84.1765 61.1802 84.3856 62.2186C84.5947 63.257 85.1067 64.2102 85.8571 64.9578C86.6075 65.7054 87.5626 66.2139 88.6018 66.4191C89.641 66.6243 90.7177 66.517 91.6959 66.1108C92.6742 65.7045 93.5101 65.0175 94.0982 64.1365C94.6863 63.2555 95.0001 62.22 95.0002 61.1607C95.024 60.4487 94.901 59.7394 94.6388 59.077C94.3766 58.4146 93.9808 57.8132 93.4761 57.3104C92.9714 56.8076 92.3686 56.4141 91.7052 56.1543C91.0418 55.8946 90.3321 55.7742 89.6202 55.8007ZM89.6202 64.1607C89.0233 64.1786 88.4347 64.018 87.9296 63.6994C87.4246 63.3809 87.0261 62.9188 86.7852 62.3725C86.5443 61.8261 86.4719 61.2203 86.5772 60.6326C86.6826 60.0448 86.961 59.5019 87.3768 59.0733C87.7925 58.6447 88.3267 58.3499 88.911 58.2266C89.4953 58.1034 90.103 58.1573 90.6564 58.3815C91.2099 58.6057 91.6838 58.9899 92.0176 59.485C92.3514 59.9801 92.5299 60.5636 92.5301 61.1607C92.5555 61.5536 92.4983 61.9474 92.3623 62.3169C92.2262 62.6863 92.0143 63.0232 91.7402 63.3058C91.4661 63.5884 91.1358 63.8104 90.7707 63.9577C90.4055 64.1049 90.0136 64.1741 89.6202 64.1607Z" fill="#333333"/>
<path d="M104.45 56.0208H97.3102V60.1908C97.3597 61.6193 97.1252 63.0435 96.6202 64.3807H95.4102V68.3807H97.5402V66.5508H103.54V68.3607H105.67V64.3607H104.44L104.45 56.0208ZM102.18 64.3607H98.9102C99.4076 63.0254 99.6353 61.6047 99.5802 60.1807V58.1807H102.18V64.3607Z" fill="#333333"/>
<path d="M112.9 59.6707H110.9V56.0208H105.83V58.1507H108.63V66.2907H112.87C114.73 66.2907 116.37 65.3807 116.37 62.9907C116.37 60.6007 114.76 59.6707 112.9 59.6707ZM112.59 64.2407H110.93V61.7308H112.59C113.44 61.7308 114.03 62.1207 114.03 62.9907C114.03 63.8607 113.44 64.2407 112.59 64.2407Z" fill="#333333"/>
<path d="M119.73 61.8307H123.4V59.7607H119.73V58.1507H123.81V56.0208H117.46V66.2907H123.88V64.1608H119.73V61.8307Z" fill="#333333"/>
<path d="M133.02 56.0208L130.86 61.2607H130.83L128.68 56.0208H126.96L124.34 66.2907H126.71L128.1 60.4408H128.13L130.03 64.8207H131.65L133.56 60.4408H133.59L134.98 66.2907H137.34L134.73 56.0208H133.02Z" fill="#333333"/>
</svg>
